{
    "asset" : {
        "generator" : "Khronos glTF Blender I/O v1.5.17",
        "version" : "2.0"
    },
    "scene" : 0,
    "scenes" : [
        {
            "name" : "Scene",
            "nodes" : [
                0
            ]
        }
    ],
    "nodes" : [
        {
            "mesh" : 0,
            "name" : "meteor_HP_Cube",
            "rotation" : [
                0.7071068286895752,
                0,
                0,
                0.7071067094802856
            ]
        }
    ],
    "meshes" : [
        {
            "name" : "meteor_HP_Cube",
            "primitives" : [
                {
                    "attributes" : {
                        "POSITION" : 0,
                        "NORMAL" : 1,
                        "TANGENT" : 2,
                        "TEXCOORD_0" : 3
                    },
                    "indices" : 4
                }
            ]
        }
    ],
    "accessors" : [
        {
            "bufferView" : 0,
            "componentType" : 5126,
            "count" : 589,
            "max" : [
                0.8787230253219604,
                0.7500370144844055,
                0.6799870133399963
            ],
            "min" : [
                -0.9528350234031677,
                -0.7080619931221008,
                -0.9587140083312988
            ],
            "type" : "VEC3"
        },
        {
            "bufferView" : 1,
            "componentType" : 5126,
            "count" : 589,
            "type" : "VEC3"
        },
        {
            "bufferView" : 2,
            "componentType" : 5126,
            "count" : 589,
            "type" : "VEC4"
        },
        {
            "bufferView" : 3,
            "componentType" : 5126,
            "count" : 589,
            "type" : "VEC2"
        },
        {
            "bufferView" : 4,
            "componentType" : 5123,
            "count" : 2760,
            "type" : "SCALAR"
        }
    ],
    "bufferViews" : [
        {
            "buffer" : 0,
            "byteLength" : 7068,
            "byteOffset" : 0
        },
        {
            "buffer" : 0,
            "byteLength" : 7068,
            "byteOffset" : 7068
        },
        {
            "buffer" : 0,
            "byteLength" : 9424,
            "byteOffset" : 14136
        },
        {
            "buffer" : 0,
            "byteLength" : 4712,
            "byteOffset" : 23560
        },
        {
            "buffer" : 0,
            "byteLength" : 5520,
            "byteOffset" : 28272
        }
    ],
    "buffers" : [
        {
            "byteLength" : 33792,
            "uri" : "untitled.bin"
        }
    ]
}
