{
	"asset":{
		"generator":"Khronos glTF Blender I/O v3.5.30",
		"version":"2.0"
	},
	"scene":0,
	"scenes":[
		{
			"name":"Scene",
			"nodes":[
				0
			]
		}
	],
	"nodes":[
		{
			"mesh":0,
			"name":"Cylinder"
		}
	],
	"meshes":[
		{
			"name":"Cylinder.001",
			"primitives":[
				{
					"attributes":{
						"POSITION":0,
						"TEXCOORD_0":1,
						"NORMAL":2,
						"TANGENT":3
					},
					"indices":4
				}
			]
		}
	],
	"accessors":[
		{
			"bufferView":0,
			"componentType":5126,
			"count":338,
			"max":[
				0.893287181854248,
				0.42018961906433105,
				0.7606270909309387
			],
			"min":[
				-0.893287181854248,
				-0.42018967866897583,
				-0.939257800579071
			],
			"type":"VEC3"
		},
		{
			"bufferView":1,
			"componentType":5126,
			"count":338,
			"type":"VEC2"
		},
		{
			"bufferView":2,
			"componentType":5126,
			"count":338,
			"type":"VEC3"
		},
		{
			"bufferView":3,
			"componentType":5126,
			"count":338,
			"type":"VEC4"
		},
		{
			"bufferView":4,
			"componentType":5123,
			"count":1320,
			"type":"SCALAR"
		}
	],
	"bufferViews":[
		{
			"buffer":0,
			"byteLength":4056,
			"byteOffset":0,
			"target":34962
		},
		{
			"buffer":0,
			"byteLength":2704,
			"byteOffset":4056,
			"target":34962
		},
		{
			"buffer":0,
			"byteLength":4056,
			"byteOffset":6760,
			"target":34962
		},
		{
			"buffer":0,
			"byteLength":5408,
			"byteOffset":10816,
			"target":34962
		},
		{
			"buffer":0,
			"byteLength":2640,
			"byteOffset":16224,
			"target":34963
		}
	],
	"buffers":[
		{
			"byteLength":18864,
			"uri":"data:application/octet-stream;base64,"
		}
	]
}
