{
	"asset":{
		"generator":"Khronos glTF Blender I/O v3.5.30",
		"version":"2.0"
	},
	"scene":0,
	"scenes":[
		{
			"name":"Scene",
			"nodes":[
				0
			]
		}
	],
	"nodes":[
		{
			"mesh":0,
			"name":"Cube",
			"rotation":[
				0,
				0,
				-0.3826834261417389,
				0.9238795638084412
			],
			"scale":[
				0.4998322129249573,
				0.4998322129249573,
				0.41720449924468994
			]
		}
	],
	"meshes":[
		{
			"name":"Cube.004",
			"primitives":[
				{
					"attributes":{
						"POSITION":0,
						"TEXCOORD_0":1,
						"NORMAL":2
					},
					"indices":3
				}
			]
		}
	],
	"accessors":[
		{
			"bufferView":0,
			"componentType":5126,
			"count":353,
			"max":[
				1.1431533098220825,
				1.9471954107284546,
				0.999998927116394
			],
			"min":[
				-1.9471958875656128,
				-1.1431536674499512,
				-0.9999989867210388
			],
			"type":"VEC3"
		},
		{
			"bufferView":1,
			"componentType":5126,
			"count":353,
			"type":"VEC2"
		},
		{
			"bufferView":2,
			"componentType":5126,
			"count":353,
			"type":"VEC3"
		},
		{
			"bufferView":3,
			"componentType":5123,
			"count":1500,
			"type":"SCALAR"
		}
	],
	"bufferViews":[
		{
			"buffer":0,
			"byteLength":4236,
			"byteOffset":0,
			"target":34962
		},
		{
			"buffer":0,
			"byteLength":2824,
			"byteOffset":4236,
			"target":34962
		},
		{
			"buffer":0,
			"byteLength":4236,
			"byteOffset":7060,
			"target":34962
		},
		{
			"buffer":0,
			"byteLength":3000,
			"byteOffset":11296,
			"target":34963
		}
	],
	"buffers":[
		{
			"byteLength":14296,
			"uri":"data:application/octet-stream;base64,"
		}
	]
}
