{
	"asset":{
		"generator":"Khronos glTF Blender I/O v3.5.30",
		"version":"2.0"
	},
	"scene":0,
	"scenes":[
		{
			"name":"Scene",
			"nodes":[
				0
			]
		}
	],
	"nodes":[
		{
			"mesh":0,
			"name":"Cube"
		}
	],
	"meshes":[
		{
			"name":"Cube.004",
			"primitives":[
				{
					"attributes":{
						"POSITION":0,
						"TEXCOORD_0":1,
						"NORMAL":2,
						"TANGENT":3
					},
					"indices":4
				}
			]
		}
	],
	"accessors":[
		{
			"bufferView":0,
			"componentType":5126,
			"count":353,
			"max":[
				0.919481098651886,
				0.8140348196029663,
				0.4172040522098541
			],
			"min":[
				-0.9194788336753845,
				-0.7699874043464661,
				-0.4172040820121765
			],
			"type":"VEC3"
		},
		{
			"bufferView":1,
			"componentType":5126,
			"count":353,
			"type":"VEC2"
		},
		{
			"bufferView":2,
			"componentType":5126,
			"count":353,
			"type":"VEC3"
		},
		{
			"bufferView":3,
			"componentType":5126,
			"count":353,
			"type":"VEC4"
		},
		{
			"bufferView":4,
			"componentType":5123,
			"count":1500,
			"type":"SCALAR"
		}
	],
	"bufferViews":[
		{
			"buffer":0,
			"byteLength":4236,
			"byteOffset":0,
			"target":34962
		},
		{
			"buffer":0,
			"byteLength":2824,
			"byteOffset":4236,
			"target":34962
		},
		{
			"buffer":0,
			"byteLength":4236,
			"byteOffset":7060,
			"target":34962
		},
		{
			"buffer":0,
			"byteLength":5648,
			"byteOffset":11296,
			"target":34962
		},
		{
			"buffer":0,
			"byteLength":3000,
			"byteOffset":16944,
			"target":34963
		}
	],
	"buffers":[
		{
			"byteLength":19944,
			"uri":"data:application/octet-stream;base64,"
		}
	]
}
