{
	"asset":{
		"generator":"Khronos glTF Blender I/O v3.5.30",
		"version":"2.0"
	},
	"scene":0,
	"scenes":[
		{
			"name":"Scene",
			"nodes":[
				0
			]
		}
	],
	"nodes":[
		{
			"mesh":0,
			"name":"Quad Sphere"
		}
	],
	"meshes":[
		{
			"name":"Quad Sphere",
			"primitives":[
				{
					"attributes":{
						"POSITION":0,
						"TEXCOORD_0":1,
						"NORMAL":2,
						"TANGENT":3
					},
					"indices":4
				}
			]
		}
	],
	"accessors":[
		{
			"bufferView":0,
			"componentType":5126,
			"count":899,
			"max":[
				1.4116756916046143,
				1.580220103263855,
				1.305124044418335
			],
			"min":[
				-1.4436153173446655,
				-1.6359211206436157,
				-1.6246520280838013
			],
			"type":"VEC3"
		},
		{
			"bufferView":1,
			"componentType":5126,
			"count":899,
			"type":"VEC2"
		},
		{
			"bufferView":2,
			"componentType":5126,
			"count":899,
			"type":"VEC3"
		},
		{
			"bufferView":3,
			"componentType":5126,
			"count":899,
			"type":"VEC4"
		},
		{
			"bufferView":4,
			"componentType":5123,
			"count":2946,
			"type":"SCALAR"
		}
	],
	"bufferViews":[
		{
			"buffer":0,
			"byteLength":10788,
			"byteOffset":0,
			"target":34962
		},
		{
			"buffer":0,
			"byteLength":7192,
			"byteOffset":10788,
			"target":34962
		},
		{
			"buffer":0,
			"byteLength":10788,
			"byteOffset":17980,
			"target":34962
		},
		{
			"buffer":0,
			"byteLength":14384,
			"byteOffset":28768,
			"target":34962
		},
		{
			"buffer":0,
			"byteLength":5892,
			"byteOffset":43152,
			"target":34963
		}
	],
	"buffers":[
		{
			"byteLength":49044,
			"uri":"data:application/octet-stream;base64,"
		}
	]
}
