{
	"asset":{
		"generator":"Khronos glTF Blender I/O v3.5.30",
		"version":"2.0"
	},
	"scene":0,
	"scenes":[
		{
			"name":"Scene",
			"nodes":[
				0
			]
		}
	],
	"nodes":[
		{
			"mesh":0,
			"name":"Aster_Small_3_"
		}
	],
	"meshes":[
		{
			"name":"Cube.015",
			"primitives":[
				{
					"attributes":{
						"POSITION":0,
						"TEXCOORD_0":1,
						"NORMAL":2,
						"TANGENT":3
					},
					"indices":4
				}
			]
		}
	],
	"accessors":[
		{
			"bufferView":0,
			"componentType":5126,
			"count":855,
			"max":[
				0.7028741836547852,
				0.6805936694145203,
				0.7592059373855591
			],
			"min":[
				-0.7233307957649231,
				-0.6066584587097168,
				-0.6607602834701538
			],
			"type":"VEC3"
		},
		{
			"bufferView":1,
			"componentType":5126,
			"count":855,
			"type":"VEC2"
		},
		{
			"bufferView":2,
			"componentType":5126,
			"count":855,
			"type":"VEC3"
		},
		{
			"bufferView":3,
			"componentType":5126,
			"count":855,
			"type":"VEC4"
		},
		{
			"bufferView":4,
			"componentType":5123,
			"count":4188,
			"type":"SCALAR"
		}
	],
	"bufferViews":[
		{
			"buffer":0,
			"byteLength":10260,
			"byteOffset":0,
			"target":34962
		},
		{
			"buffer":0,
			"byteLength":6840,
			"byteOffset":10260,
			"target":34962
		},
		{
			"buffer":0,
			"byteLength":10260,
			"byteOffset":17100,
			"target":34962
		},
		{
			"buffer":0,
			"byteLength":13680,
			"byteOffset":27360,
			"target":34962
		},
		{
			"buffer":0,
			"byteLength":8376,
			"byteOffset":41040,
			"target":34963
		}
	],
	"buffers":[
		{
			"byteLength":49416,
			"uri":"data:application/octet-stream;base64,"
		}
	]
}
